# xmcd
#
# Track frame offsets:
#	150
#	21886
#	43410
#	64671
#	88108
#	114018
#	126645
#	149394
#	173596
#	199046
#	225024
#	246965
#
# Disc length: 3579 seconds
#
# Revision: 1
# Processed by: cddbd v1.5.2PL0 Copyright (c) Steve Scherf et al.
# Submitted via: audiograbber 1.83.01
#
DISCID=9f0df90c
DTITLE=TRUCKER MOUTH - TRUCKER MOUTH
DYEAR=2008
DGENRE=Southern Rock
TTITLE0=BLACK CAT
TTITLE1=NOTHING TO HIDE
TTITLE2=LIKENESS
TTITLE3=LOVE and A SHOTGUN
TTITLE4=TAKE ME HOME
TTITLE5=JIMMY LEE
TTITLE6=FOR THE TAKE
TTITLE7=SUGAR BROWN
TTITLE8=WASTED MIND
TTITLE9=SIMPELE THINGS
TTITLE10=LITHOGRAPHY
TTITLE11=DEGENERATE FRIEND
EXTD=
EXTT0=
EXTT1=
EXTT2=
EXTT3=
EXTT4=
EXTT5=
EXTT6=
EXTT7=
EXTT8=
EXTT9=
EXTT10=
EXTT11=
PLAYORDER=
